<svg id="Capa_1" enable-background="new 0 0 510.483 510.483" height="512" viewBox="0 0 510.483 510.483" width="512" xmlns="http://www.w3.org/2000/svg"><g><path d="m344.99 330.241h15v15.001h-15z"/><path d="m359.99 210.241v-105h-179.828v-74.832h-150.334v239.542h105.167v-15h-90.167v-209.542h120.334v59.832h-15.162v180.001h-135v-270.001h179.99v75.001h15v-90.001h-209.99v300.001h150v105h180.494v75.5h150.001v-240h-105.5v15h90.5v210h-120.001v-60.5h14.496v-45h-15v30h-179.99v-270.001h179.99v195.001h15v-90.001h135.493v270.001h-179.99v-75h-15v90h209.99v-300.001z"/><path d="m308.5 282.663c11.827-11.827 11.826-31.071 0-42.898l-53.269-53.269-.236.236-.236-.236-53.269 53.269c-11.826 11.827-11.826 31.071 0 42.898 5.915 5.914 13.681 8.87 21.449 8.87 14.306 0 24.556-11.977 24.556-11.977v26.324h-15.5v15h45.333v-15h-14.833v-26.324c0 .001 24.463 24.649 46.005 3.107zm-74.719-10.606c-5.979 5.979-15.705 5.979-21.684 0s-5.979-15.707 0-21.685l42.661-42.662.236.236.236-.236 42.661 42.662c5.979 5.979 5.979 15.707 0 21.685s-15.706 5.979-21.685 0l-21.213-21.213z"/><path d="m60.162 60.242h15v15h-15z"/><path d="m60.162 90.242h15v15h-15z"/></g></svg>