<?xml version="1.0" encoding="iso-8859-1"?>
<!-- Generator: Adobe Illustrator 19.0.0, SVG Export Plug-In . SVG Version: 6.00 Build 0)  -->
<svg version="1.1" id="Capa_1" xmlns="http://www.w3.org/2000/svg" xmlns:xlink="http://www.w3.org/1999/xlink" x="0px" y="0px"
	 viewBox="0 0 512 512" style="enable-background:new 0 0 512 512;" xml:space="preserve">
<g>
	<g>
		<path d="M497,90c8.284,0,15-6.716,15-15V15c0-8.284-6.716-15-15-15h-60c-8.284,0-15,6.716-15,15v15H90V15c0-8.284-6.716-15-15-15
			H15C6.716,0,0,6.716,0,15v60c0,8.284,6.716,15,15,15h15v332H15c-8.284,0-15,6.716-15,15v60c0,8.284,6.716,15,15,15h60
			c8.284,0,15-6.716,15-15v-15h332v15c0,8.284,6.716,15,15,15h60c8.284,0,15-6.716,15-15v-60c0-8.284-6.716-15-15-15h-15V90H497z
			 M30,30h30v30H30V30z M60,482H30v-30h30V482z M422,437v15H90v-15c0-8.284-6.716-15-15-15H60V90h15c8.284,0,15-6.716,15-15V60h332
			v15c0,8.284,6.716,15,15,15h15v332h-15C428.716,422,422,428.716,422,437z M482,482h-30v-30h30V482z M452,60V30h30v30H452z"/>
	</g>
</g>
<g>
	<g>
		<path d="M376,90H136c-8.284,0-15,6.716-15,15v90c0,13.302,16.165,20.051,25.606,10.607L172.213,180H211v177.458l-27.48,41.221
			C176.879,408.64,184.05,422,196,422h120c11.971,0,19.109-13.377,12.48-23.32L301,357.458V180h38.783l25.611,25.607
			C374.8,215.013,391,208.355,391,195v-90C391,96.716,384.284,90,376,90z M361,158.79l-4.398-4.397
			c-2.813-2.813-6.628-4.393-10.605-4.393H286c-8.284,0-15,6.716-15,15v197c0,2.961,0.877,5.856,2.52,8.32L287.973,392h-63.945
			l14.453-21.68c1.643-2.464,2.52-5.359,2.52-8.32V165c0-8.284-6.716-15-15-15h-60c-3.979,0-7.794,1.58-10.606,4.393L151,158.787
			V120h210V158.79z"/>
	</g>
</g>
<g>
</g>
<g>
</g>
<g>
</g>
<g>
</g>
<g>
</g>
<g>
</g>
<g>
</g>
<g>
</g>
<g>
</g>
<g>
</g>
<g>
</g>
<g>
</g>
<g>
</g>
<g>
</g>
<g>
</g>
</svg>
